<svg xmlns="http://www.w3.org/2000/svg" width="100" height="100" viewBox="0 0 100 100">
  <defs>
    <style>
      .stroke-color {
        stroke: #343434;
      }
      .fill-color {
        fill: #343434;
      }

      .fill-white {
        fill: #cdcdcd;
      }

      .char {
        font-size: 40px;
        font-weight: lighter;
      }
    </style>
  </defs>
  <polygon
    points="5,0 4,1 3,2 2,3 0,10 0,90 1,96 2,97 3,98 4,99 5,100 6,99 7,98 8,97 9,96 10,90 10,10 9,4 8,3 7,2 6,1 5,0"
    class="fill-color stroke-color"
  />
  <polygon
    class="book stroke-color fill-color"
    points="12,5 17,0 90,0 95,5 95,95 90,100 17,100 12,95"
  />

  <text
    x="30"
    y="85"
    class="char fill-white"
  >
      MD
  </text>
</svg>
